<svg width="32" height="23" viewBox="0 0 32 23" fill="none" xmlns="http://www.w3.org/2000/svg">
<path d="M29.0231 0H2.96616C2.46329 0 2.05197 0.137118 1.64062 0.320152L15.0348 11.2915C15.5833 11.7487 16.4518 11.7487 17.0003 11.2915L30.3945 0.320152C29.9375 0.137118 29.5262 0 29.0233 0H29.0231Z" fill="#579981"/>
<path d="M11.8858 11.0624L0.320152 1.59961C0.0915179 2.01096 0 2.46825 0 2.97111V19.4281C0 19.931 0.137118 20.3882 0.320152 20.7996L11.8858 11.0624Z" fill="#579981"/>
<path d="M18.1432 12.7092C17.5032 13.2121 16.7717 13.4863 15.9947 13.4863C15.2176 13.4863 14.4861 13.2121 13.8461 12.7092L13.2977 12.252L1.64062 22.0804C2.05198 22.2631 2.50927 22.4006 2.96616 22.4006H29.0231C29.5259 22.4006 29.9373 22.2635 30.3486 22.0804L18.6916 12.252L18.1432 12.7092Z" fill="#579981"/>
<path d="M31.675 1.59961L20.1094 11.0624L31.675 20.7537C31.9036 20.3424 31.9951 19.8851 31.9951 19.3822V2.92523C31.9951 2.46828 31.858 2.01136 31.675 1.60002V1.59961Z" fill="#579981"/>
</svg>
