<svg width="32" height="32" viewBox="0 0 32 32" fill="none" xmlns="http://www.w3.org/2000/svg">
<path d="M28.4575 30.003C29.3109 30.003 30.003 29.3109 30.003 28.4573V3.54554C30.003 2.69182 29.311 2 28.4575 2H3.54555C2.69182 2 2 2.69182 2 3.54554V28.4573C2 29.3108 2.69172 30.003 3.54555 30.003H28.4575Z" fill="#3C5A99"/>
<path d="M21.3217 30.0031V19.1588H24.9617L25.5067 14.9326H21.3217V12.2344C21.3217 11.0108 21.6615 10.177 23.4161 10.177L25.654 10.176V6.39606C25.267 6.34456 23.9385 6.22949 22.393 6.22949C19.1664 6.22949 16.9574 8.19901 16.9574 11.8159V14.9326H13.3081V19.1588H16.9574V30.0031H21.3217Z" fill="white"/>
</svg>
