<svg width="22" height="19" viewBox="0 0 22 19" fill="none" xmlns="http://www.w3.org/2000/svg">
<path d="M0.296875 12.5469C0.296875 15.6198 1.46875 17.4948 3.8125 18.1719C4.33333 18.3281 4.85417 18.4062 5.375 18.4062C7.35417 18.4062 8.76042 17.4688 9.59375 15.5938C9.85417 14.9167 9.98438 14.2396 9.98438 13.5625C9.98438 11.4792 8.99479 10.0208 7.01562 9.1875C6.70312 9.08333 6.41667 9.00521 6.15625 8.95312C4.95833 8.58854 4.33333 8.01562 4.28125 7.23438C4.28125 5.77604 5.21875 4.05729 7.09375 2.07812C7.19792 1.97396 7.27604 1.89583 7.32812 1.84375L5.6875 0.671875C2.61458 3.90104 0.84375 7.39062 0.375 11.1406C0.322917 11.6615 0.296875 12.1302 0.296875 12.5469ZM12.0156 12.5469C12.0156 15.5156 13.1354 17.3646 15.375 18.0938C15.9479 18.3021 16.5469 18.4062 17.1719 18.4062C19.099 18.4062 20.4792 17.5208 21.3125 15.75C21.625 15.0208 21.7812 14.2917 21.7812 13.5625C21.7812 11.4792 20.7917 10.0208 18.8125 9.1875C18.5 9.08333 18.2135 9.00521 17.9531 8.95312C16.7031 8.58854 16.0521 8.01562 16 7.23438C16 5.82812 16.9635 4.10938 18.8906 2.07812C18.9948 1.97396 19.0729 1.89583 19.125 1.84375L17.4844 0.671875C14.3594 3.90104 12.5625 7.39062 12.0938 11.1406C12.0417 11.6094 12.0156 12.0781 12.0156 12.5469Z" fill="#BDBDBD"/>
</svg>
