<svg width="25" height="32" viewBox="0 0 25 32" fill="none" xmlns="http://www.w3.org/2000/svg">
<path d="M12.5347 27.7799C12.9977 27.7799 14.4845 27.1623 16.6118 25.1951C19.9913 22.0842 23.9372 16.6176 23.9372 11.4711V11.4713C23.9372 8.42884 22.7287 5.51124 20.5774 3.35977C18.4264 1.2085 15.5085 0 12.4665 0C9.42447 0 6.50642 1.2085 4.3556 3.35977C2.20433 5.51105 0.995828 8.42865 0.995828 11.4713C0.995828 19.5567 10.4138 27.6082 12.5351 27.7801L12.5347 27.7799ZM12.466 4.63788C13.9158 4.63788 15.3063 5.2138 16.3315 6.23902C17.3566 7.26423 17.9326 8.65477 17.9326 10.1045C17.9326 11.5542 17.3567 12.9448 16.3315 13.97C15.3062 14.9951 13.9157 15.5711 12.466 15.5711C11.0163 15.5711 9.62571 14.9952 8.60052 13.97C7.57534 12.9447 6.99939 11.5542 6.99939 10.1045C7.00092 8.65497 7.57735 7.26551 8.60203 6.24052C9.62702 5.21579 11.0165 4.63938 12.466 4.63788ZM24.932 28.8549C24.932 29.9243 20.5345 32 12.466 32C4.39751 32 0 29.9243 0 28.8549C0 28.1401 2.0586 26.8134 6.64504 26.1272C6.7247 26.1147 6.80179 26.0894 6.87378 26.0529C9.02375 28.0829 11.1284 29.3867 12.3976 29.484H12.5576C14.2731 29.484 16.7721 27.3738 17.7784 26.4476C17.9043 26.3332 18.0302 26.2074 18.1558 26.0815H18.156C18.1992 26.0956 18.2431 26.1068 18.2875 26.1157C22.8737 26.8134 24.9325 28.1402 24.9325 28.8549L24.932 28.8549Z" fill="#579981"/>
</svg>
