<svg width="32" height="32" viewBox="0 0 32 32" fill="none" xmlns="http://www.w3.org/2000/svg">
<path d="M31.3233 27.8393L28.853 30.3096C27.7581 31.4045 26.3059 32 24.7886 32C24.5504 32 24.3122 31.9847 24.0702 31.9539C18.9183 31.3161 13.244 28.2311 8.50364 23.4905C3.76289 18.7534 0.68162 13.0794 0.0443064 7.92737C-0.17463 6.15257 0.424568 4.41234 1.69234 3.1445L4.16256 0.674273C5.06159 -0.224758 6.52529 -0.224758 7.42034 0.674273L12.8525 6.10647C13.2867 6.54059 13.5286 7.12075 13.5286 7.73522C13.5286 8.34996 13.2904 8.92986 12.8525 9.36397L9.86381 12.3527L19.6444 22.1333L22.6331 19.1446C23.5322 18.2456 24.9919 18.2456 25.8909 19.1446L31.3231 24.5768C32.2221 25.4761 32.2221 26.9398 31.3231 27.8389L31.3233 27.8393Z" fill="#579981"/>
</svg>
